<svg viewBox="0 0 300 370" xmlns="http://www.w3.org/2000/svg">
  <g class="regions"><ellipse class="region" fill="#ffffff" cx="150" cy="116" rx="72" ry="74"/><circle class="region" fill="#ffffff" cx="150" cy="50" r="24"/><path class="region" fill="#ffffff" d="M92 120 q-8 60 8 120 l20 -4 q-14 -60 -4 -118 z"/><path class="region" fill="#ffffff" d="M208 120 q8 60 -8 120 l-20 -4 q14 -60 4 -118 z"/><path class="region" fill="#ffffff" d="M110 72 L118 38 L134 62 L150 30 L166 62 L182 38 L190 72 Z"/><circle class="region" fill="#ffffff" cx="150" cy="120" r="56"/><path class="region" fill="#ffffff" d="M138 168 h24 v18 q-12 8 -24 0 z"/><path class="region" fill="#ffffff" d="M124 182 q26 16 52 0 L210 330 q2 12 -10 12 L100 342 q-12 0 -10 -12 z"/><path class="region" fill="#ffffff" d="M126 196 q-26 14 -28 54 q-1 9 8 8 q9 -1 11 -10 l16 -44 z"/><path class="region" fill="#ffffff" d="M174 196 q26 14 28 54 q1 9 -8 8 q-9 -1 -11 -10 l-16 -44 z"/><circle class="region" fill="#ffffff" cx="120" cy="132" r="9"/><circle class="region" fill="#ffffff" cx="180" cy="132" r="9"/><rect class="region" fill="#ffffff" x="112" y="212" width="76" height="16" rx="4"/><circle class="region" fill="#ffffff" cx="150" cy="220" r="9"/></g>
  <g class="outlines" fill="none" stroke="#2b2b2b" stroke-width="5" stroke-linecap="round" stroke-linejoin="round"><ellipse fill="none" cx="150" cy="116" rx="72" ry="74"/><circle fill="none" cx="150" cy="50" r="24"/><path fill="none" d="M92 120 q-8 60 8 120 l20 -4 q-14 -60 -4 -118 z"/><path fill="none" d="M208 120 q8 60 -8 120 l-20 -4 q14 -60 4 -118 z"/><path fill="none" d="M110 72 L118 38 L134 62 L150 30 L166 62 L182 38 L190 72 Z"/><circle fill="none" cx="150" cy="120" r="56"/><path fill="none" d="M138 168 h24 v18 q-12 8 -24 0 z"/><path fill="none" d="M124 182 q26 16 52 0 L210 330 q2 12 -10 12 L100 342 q-12 0 -10 -12 z"/><path fill="none" d="M126 196 q-26 14 -28 54 q-1 9 8 8 q9 -1 11 -10 l16 -44 z"/><path fill="none" d="M174 196 q26 14 28 54 q1 9 -8 8 q-9 -1 -11 -10 l-16 -44 z"/><circle fill="none" cx="120" cy="132" r="9"/><circle fill="none" cx="180" cy="132" r="9"/><rect fill="none" x="112" y="212" width="76" height="16" rx="4"/><circle fill="none" cx="150" cy="220" r="9"/><circle cx="134" cy="120" r="5.5" fill="#2b2b2b" stroke="none"/><circle cx="166" cy="120" r="5.5" fill="#2b2b2b" stroke="none"/><path d="M139 138 q11 10 22 0"/></g>
</svg>
