<svg viewBox="0 0 300 370" xmlns="http://www.w3.org/2000/svg">
  <g class="regions"><path class="region" fill="#ffffff" fill-rule="evenodd" d="M235 160 a44 44 0 1 0 0.01 0 z M235 172 a32 32 0 1 1 -0.01 0 z"/><ellipse class="region" fill="#ffffff" cx="150" cy="108" rx="58" ry="60"/><circle class="region" fill="#ffffff" cx="96" cy="92" r="16"/><circle class="region" fill="#ffffff" cx="92" cy="122" r="16"/><circle class="region" fill="#ffffff" cx="204" cy="92" r="16"/><circle class="region" fill="#ffffff" cx="208" cy="122" r="16"/><circle class="region" fill="#ffffff" cx="150" cy="112" r="45"/><path class="region" fill="#ffffff" d="M140 154 h20 v14 q-10 7 -20 0 z"/><rect class="region" fill="#ffffff" x="0" y="-11" width="80" height="22" rx="11" transform="translate(140 242) rotate(94)"/><rect class="region" fill="#ffffff" x="0" y="-11" width="80" height="22" rx="11" transform="translate(160 242) rotate(86)"/><circle class="region" fill="#ffffff" cx="134" cy="322" r="10"/><circle class="region" fill="#ffffff" cx="166" cy="322" r="10"/><path class="region" fill="#ffffff" d="M122 166 Q150 180 178 166 L172 246 Q150 256 128 246 Z"/><path class="region" fill="#ffffff" d="M130 218 L170 218 L186 248 Q150 262 114 248 Z"/><rect class="region" fill="#ffffff" x="0" y="-10" width="58" height="20" rx="10" transform="translate(130 170) rotate(140)"/><rect class="region" fill="#ffffff" x="0" y="-10" width="58" height="20" rx="10" transform="translate(170 170) rotate(22)"/><circle class="region" fill="#ffffff" cx="86" cy="207" r="9"/><circle class="region" fill="#ffffff" cx="224" cy="192" r="9"/><circle class="region" fill="#ffffff" cx="127" cy="122" r="7"/><circle class="region" fill="#ffffff" cx="173" cy="122" r="7"/><path class="region" fill="#ffffff" d="M150 183 L154 193 L164 193 L156 200 L159 210 L150 205 L141 210 L144 200 L136 193 L146 193 Z"/></g>
  <g class="outlines" fill="none" stroke="#2b2b2b" stroke-width="5" stroke-linecap="round" stroke-linejoin="round"><path fill="none" fill-rule="evenodd" d="M235 160 a44 44 0 1 0 0.01 0 z M235 172 a32 32 0 1 1 -0.01 0 z"/><ellipse fill="none" cx="150" cy="108" rx="58" ry="60"/><circle fill="none" cx="96" cy="92" r="16"/><circle fill="none" cx="92" cy="122" r="16"/><circle fill="none" cx="204" cy="92" r="16"/><circle fill="none" cx="208" cy="122" r="16"/><circle fill="none" cx="150" cy="112" r="45"/><path fill="none" d="M140 154 h20 v14 q-10 7 -20 0 z"/><rect fill="none" x="0" y="-11" width="80" height="22" rx="11" transform="translate(140 242) rotate(94)"/><rect fill="none" x="0" y="-11" width="80" height="22" rx="11" transform="translate(160 242) rotate(86)"/><circle fill="none" cx="134" cy="322" r="10"/><circle fill="none" cx="166" cy="322" r="10"/><path fill="none" d="M122 166 Q150 180 178 166 L172 246 Q150 256 128 246 Z"/><path fill="none" d="M130 218 L170 218 L186 248 Q150 262 114 248 Z"/><rect fill="none" x="0" y="-10" width="58" height="20" rx="10" transform="translate(130 170) rotate(140)"/><rect fill="none" x="0" y="-10" width="58" height="20" rx="10" transform="translate(170 170) rotate(22)"/><circle fill="none" cx="86" cy="207" r="9"/><circle fill="none" cx="224" cy="192" r="9"/><circle fill="none" cx="127" cy="122" r="7"/><circle fill="none" cx="173" cy="122" r="7"/><path fill="none" d="M150 183 L154 193 L164 193 L156 200 L159 210 L150 205 L141 210 L144 200 L136 193 L146 193 Z"/><circle cx="137" cy="112" r="4.5" fill="#2b2b2b" stroke="none"/><circle cx="163" cy="112" r="4.5" fill="#2b2b2b" stroke="none"/><path d="M141 128 q9 8 18 0"/></g>
</svg>
