<svg viewBox="0 0 300 370" xmlns="http://www.w3.org/2000/svg">
  <g class="regions"><ellipse class="region" fill="#ffffff" cx="150" cy="108" rx="58" ry="60"/><circle class="region" fill="#ffffff" cx="86" cy="100" r="22"/><circle class="region" fill="#ffffff" cx="214" cy="100" r="22"/><circle class="region" fill="#ffffff" cx="150" cy="112" r="45"/><path class="region" fill="#ffffff" d="M140 154 h20 v14 q-10 7 -20 0 z"/><rect class="region" fill="#ffffff" x="0" y="-11" width="80" height="22" rx="11" transform="translate(140 242) rotate(115)"/><rect class="region" fill="#ffffff" x="0" y="-11" width="80" height="22" rx="11" transform="translate(160 242) rotate(65)"/><circle class="region" fill="#ffffff" cx="106" cy="315" r="10"/><circle class="region" fill="#ffffff" cx="194" cy="315" r="10"/><path class="region" fill="#ffffff" d="M122 166 Q150 180 178 166 L172 246 Q150 256 128 246 Z"/><rect class="region" fill="#ffffff" x="0" y="-10" width="58" height="20" rx="10" transform="translate(130 170) rotate(215)"/><rect class="region" fill="#ffffff" x="0" y="-10" width="58" height="20" rx="10" transform="translate(170 170) rotate(-35)"/><circle class="region" fill="#ffffff" cx="82" cy="137" r="9"/><circle class="region" fill="#ffffff" cx="218" cy="137" r="9"/><circle class="region" fill="#ffffff" cx="127" cy="122" r="7"/><circle class="region" fill="#ffffff" cx="173" cy="122" r="7"/><path class="region" fill="#ffffff" d="M150 183 L154 193 L164 193 L156 200 L159 210 L150 205 L141 210 L144 200 L136 193 L146 193 Z"/><path class="region" fill="#ffffff" d="M50 32 L55 45 L69 46 L59 55 L62 68 L50 61 L38 68 L41 55 L31 46 L45 45 Z"/></g>
  <g class="outlines" fill="none" stroke="#2b2b2b" stroke-width="5" stroke-linecap="round" stroke-linejoin="round"><ellipse fill="none" cx="150" cy="108" rx="58" ry="60"/><circle fill="none" cx="86" cy="100" r="22"/><circle fill="none" cx="214" cy="100" r="22"/><circle fill="none" cx="150" cy="112" r="45"/><path fill="none" d="M140 154 h20 v14 q-10 7 -20 0 z"/><rect fill="none" x="0" y="-11" width="80" height="22" rx="11" transform="translate(140 242) rotate(115)"/><rect fill="none" x="0" y="-11" width="80" height="22" rx="11" transform="translate(160 242) rotate(65)"/><circle fill="none" cx="106" cy="315" r="10"/><circle fill="none" cx="194" cy="315" r="10"/><path fill="none" d="M122 166 Q150 180 178 166 L172 246 Q150 256 128 246 Z"/><rect fill="none" x="0" y="-10" width="58" height="20" rx="10" transform="translate(130 170) rotate(215)"/><rect fill="none" x="0" y="-10" width="58" height="20" rx="10" transform="translate(170 170) rotate(-35)"/><circle fill="none" cx="82" cy="137" r="9"/><circle fill="none" cx="218" cy="137" r="9"/><circle fill="none" cx="127" cy="122" r="7"/><circle fill="none" cx="173" cy="122" r="7"/><path fill="none" d="M150 183 L154 193 L164 193 L156 200 L159 210 L150 205 L141 210 L144 200 L136 193 L146 193 Z"/><path fill="none" d="M50 32 L55 45 L69 46 L59 55 L62 68 L50 61 L38 68 L41 55 L31 46 L45 45 Z"/><circle cx="137" cy="112" r="4.5" fill="#2b2b2b" stroke="none"/><circle cx="163" cy="112" r="4.5" fill="#2b2b2b" stroke="none"/><path d="M141 128 q9 8 18 0"/></g>
</svg>
