<svg viewBox="0 0 245 260" xmlns="http://www.w3.org/2000/svg">
  <g class="regions"><path class="region" fill="#ffffff" fill-rule="evenodd" d="M 147 13 C 143 15, 136 21, 136 23 C 136 26, 140 27, 143 25 C 154 14, 170 31, 160 43 C 157 47, 157 47, 159 49 L 161 51 164 49 C 179 34, 166 7, 147 13"/><path class="region" fill="#ffffff" fill-rule="evenodd" d="M 42 14 C 27 19, 23 37, 34 49 C 40 54, 43 51, 39 44 C 34 38, 36 26, 43 24 C 48 23, 53 23, 56 26 C 60 29, 64 26, 62 22 C 59 15, 49 12, 42 14"/><path class="region" fill="#ffffff" fill-rule="evenodd" d="M 86 22 C 58 28, 40 50, 34 86 C 27 125, 45 140, 100 140 C 150 141, 174 124, 169 93 C 160 41, 128 13, 86 22 M 67 68 C 62 72, 62 83, 67 86 C 73 89, 79 85, 79 77 C 79 68, 73 63, 67 68 M 124 69 C 118 74, 121 87, 129 87 C 139 87, 140 69, 130 66 C 128 66, 127 67, 124 69 M 89 84 C 65 92, 57 117, 75 126 C 88 133, 120 131, 128 123 C 139 112, 129 89, 110 84 C 105 83, 94 83, 89 84"/><path class="region" fill="#ffffff" fill-rule="evenodd" d="M 148 27 C 145 29, 145 30, 150 36 C 154 41, 154 41, 156 39 C 162 34, 155 24, 148 27"/><path class="region" fill="#ffffff" fill-rule="evenodd" d="M 43 31 C 41 34, 40 38, 43 41 C 44 43, 44 43, 49 37 C 54 32, 54 31, 52 30 C 49 27, 46 28, 43 31"/><path class="region" fill="#ffffff" fill-rule="evenodd" d="M 95 89 C 80 91, 68 104, 70 113 C 75 132, 130 129, 128 110 C 126 95, 111 85, 95 89 M 92 91 C 87 94, 87 101, 93 104 C 97 106, 97 108, 95 109 C 94 111, 92 111, 90 107 C 90 106, 88 105, 88 105 C 83 105, 85 112, 90 115 C 92 117, 93 118, 93 120 L 93 123 100 123 L 107 123 107 119 C 107 117, 108 116, 109 115 C 112 113, 113 112, 113 109 C 113 105, 110 105, 109 108 C 108 110, 105 111, 103 110 C 101 108, 102 106, 106 104 C 117 96, 104 85, 92 91"/><path class="region" fill="#ffffff" fill-rule="evenodd" d="M 192 119 C 187 121, 184 123, 184 125 C 184 126, 187 126, 190 126 C 193 126, 198 127, 202 127 C 206 128, 208 128, 209 127 C 209 127, 211 125, 213 123 L 217 120 213 119 C 208 116, 198 117, 192 119"/><path class="region" fill="#ffffff" fill-rule="evenodd" d="M 218 127 L 214 129 216 130 C 217 131, 221 132, 224 134 C 230 136, 231 136, 229 132 C 224 124, 223 123, 218 127"/><path class="region" fill="#ffffff" fill-rule="evenodd" d="M 180 132 C 179 134, 173 151, 174 152 C 174 152, 177 153, 181 153 C 185 154, 190 154, 192 155 C 195 155, 195 155, 198 148 C 199 144, 201 139, 202 137 C 204 135, 204 134, 203 133 C 202 131, 182 130, 180 132"/><path class="region" fill="#ffffff" fill-rule="evenodd" d="M 170 134 C 168 137, 157 152, 157 152 C 157 153, 159 153, 162 153 C 168 153, 167 155, 174 134 C 174 131, 173 132, 170 134"/><path class="region" fill="#ffffff" fill-rule="evenodd" d="M 206 143 C 199 157, 199 156, 206 159 C 210 160, 215 162, 217 164 C 224 167, 224 167, 228 158 C 235 145, 231 139, 214 135 L 210 134 206 143"/><path class="region" fill="#ffffff" fill-rule="evenodd" d="M 140 141 C 133 145, 90 147, 71 144 L 63 142 61 151 C 55 176, 54 222, 59 234 C 65 249, 81 251, 87 239 C 90 234, 90 232, 85 209 C 83 200, 81 192, 81 191 C 82 190, 85 190, 85 191 C 86 192, 93 222, 94 228 L 94 233 102 233 L 110 233 111 228 C 116 200, 119 190, 121 190 C 124 190, 124 192, 122 199 C 114 238, 114 239, 123 244 C 132 250, 143 244, 147 231 C 149 224, 149 168, 147 157 C 145 142, 143 139, 140 141"/><path class="region" fill="#ffffff" fill-rule="evenodd" d="M 155 159 C 154 160, 154 160, 155 162 C 155 163, 157 169, 159 175 C 164 190, 166 189, 166 171 L 167 158 162 158 C 159 158, 156 158, 155 159"/><path class="region" fill="#ffffff" fill-rule="evenodd" d="M 172 163 C 171 165, 171 171, 171 175 L 171 182 175 183 C 177 185, 178 185, 178 187 C 178 190, 178 190, 181 189 C 184 187, 187 188, 188 191 C 189 193, 189 191, 189 185 C 190 180, 191 173, 192 169 C 192 164, 193 161, 193 160 C 192 160, 182 158, 177 158 L 172 158 172 163"/><path class="region" fill="#ffffff" fill-rule="evenodd" d="M 197 165 C 197 166, 196 169, 196 172 C 196 174, 195 179, 194 183 L 194 190 198 188 C 203 185, 218 173, 219 171 C 219 170, 215 168, 206 164 C 198 161, 198 161, 197 165"/><path class="region" fill="#ffffff" fill-rule="evenodd" d="M 167 189 C 159 193, 154 200, 154 209 L 154 215 156 211 C 162 201, 177 202, 177 213 C 177 224, 168 231, 159 228 C 155 226, 154 225, 154 218 C 153 216, 153 218, 153 222 C 153 225, 153 230, 152 232 C 151 236, 151 237, 157 235 C 173 232, 188 218, 191 207 L 191 203 188 204 C 183 207, 182 206, 182 199 L 183 194 180 196 C 175 201, 172 200, 173 193 C 173 188, 172 187, 167 189"/><path class="region" fill="#ffffff" fill-rule="evenodd" d="M 32 192 C 34 199, 30 202, 25 197 L 22 195 22 200 C 23 206, 22 207, 17 205 C 13 204, 12 205, 16 213 C 21 223, 34 233, 48 236 C 54 237, 54 237, 53 233 C 52 231, 52 228, 52 227 L 52 224 49 227 C 42 234, 27 228, 27 217 C 27 207, 38 204, 47 212 L 51 215 51 210 C 51 201, 48 196, 39 191 C 33 188, 31 188, 32 192"/><path class="region" fill="#ffffff" fill-rule="evenodd" d="M 162 213 C 159 216, 158 220, 161 222 C 164 226, 172 220, 172 213 C 172 208, 166 208, 162 213"/><path class="region" fill="#ffffff" fill-rule="evenodd" d="M 33 214 C 29 217, 35 225, 42 225 C 48 225, 48 217, 41 214 C 36 212, 36 212, 33 214"/></g>
  <g class="outlines"><path fill="#2b2b2b" fill-rule="evenodd" d="M 144 10 C 139 12, 134 17, 133 20 C 132 22, 131 23, 130 22 C 110 15, 84 15, 69 23 C 68 24, 67 23, 65 19 C 56 6, 35 7, 27 22 C 21 32, 24 46, 33 53 L 37 57 35 65 C 21 106, 28 130, 57 139 C 59 140, 59 143, 58 148 C 56 152, 51 170, 47 182 C 47 184, 46 187, 46 188 C 46 190, 45 190, 41 187 C 32 183, 28 184, 28 190 L 28 194 25 192 C 20 189, 19 190, 18 196 L 18 201 14 201 C 3 200, 12 221, 28 231 C 35 236, 48 241, 54 241 C 57 241, 58 242, 59 244 C 67 255, 86 252, 92 239 L 93 236 103 236 C 112 236, 112 236, 113 239 C 118 252, 137 255, 146 243 C 148 241, 149 240, 152 240 C 162 240, 181 230, 188 221 C 197 209, 198 198, 189 199 C 184 201, 186 199, 193 195 C 236 174, 250 134, 219 117 C 199 106, 177 116, 158 144 C 150 155, 151 155, 149 147 C 148 144, 148 141, 147 140 C 147 138, 148 137, 153 135 C 175 123, 179 101, 166 66 C 161 55, 161 56, 166 52 C 186 35, 168 0, 144 10 M 147 12 C 142 14, 137 18, 135 21 C 134 25, 133 24, 137 27 L 140 29 143 26 C 154 16, 169 31, 159 43 L 156 46 158 50 C 160 54, 160 54, 164 50 C 181 35, 167 5, 147 12 M 41 13 C 25 19, 22 39, 34 51 C 39 55, 39 55, 41 51 C 43 48, 43 47, 41 46 C 35 40, 36 27, 44 25 C 45 25, 47 25, 48 24 C 50 24, 55 26, 57 28 C 58 30, 59 30, 65 25 C 65 25, 64 24, 64 22 C 59 14, 49 10, 41 13 M 85 21 C 57 27, 39 49, 33 85 C 25 126, 43 141, 100 141 C 154 142, 177 124, 169 89 C 159 37, 127 12, 85 21 M 147 26 C 143 28, 143 30, 146 34 C 148 36, 151 39, 152 41 L 154 43 157 41 C 163 34, 156 22, 147 26 M 42 30 C 40 33, 39 38, 42 42 C 44 45, 45 45, 51 37 L 56 31 53 29 C 50 26, 45 26, 42 30 M 68 69 C 61 74, 64 86, 72 86 C 79 86, 80 72, 74 68 C 70 67, 71 67, 68 69 M 125 70 C 121 73, 121 79, 124 83 C 130 91, 139 80, 134 72 C 132 67, 129 67, 125 70 M 129 72 C 127 75, 130 78, 132 76 C 133 74, 133 74, 132 72 C 130 71, 130 71, 129 72 M 71 74 C 71 75, 72 76, 73 76 C 74 76, 75 75, 75 74 C 75 73, 74 72, 73 72 C 72 72, 71 73, 71 74 M 89 85 C 71 91, 62 108, 69 120 C 78 134, 126 132, 131 116 C 137 98, 111 79, 89 85 M 94 87 C 76 91, 64 107, 71 118 C 81 133, 129 128, 129 112 C 129 96, 112 84, 94 87 M 93 92 C 88 94, 89 100, 95 103 C 100 106, 98 113, 92 112 C 91 111, 90 110, 89 108 C 88 107, 88 106, 87 107 C 85 108, 87 112, 91 114 C 93 116, 94 117, 94 119 L 94 122 100 122 C 105 122, 106 121, 106 118 C 106 116, 107 115, 108 114 C 111 112, 112 111, 112 109 C 112 106, 110 107, 110 109 C 109 111, 105 113, 102 111 C 100 109, 101 105, 105 103 C 114 96, 104 86, 93 92 M 98 114 C 96 115, 95 119, 97 119 C 99 121, 103 119, 103 117 C 103 113, 100 112, 98 114 M 190 118 C 187 120, 185 121, 183 123 C 181 127, 181 127, 188 127 C 191 127, 197 128, 201 128 C 208 129, 209 129, 211 127 C 212 126, 214 124, 216 123 L 219 120 215 118 C 209 115, 197 115, 190 118 M 216 126 C 211 129, 211 130, 217 132 C 219 133, 223 135, 226 136 C 233 139, 234 139, 230 131 C 225 122, 223 121, 216 126 M 177 126 C 176 127, 176 128, 177 128 C 177 128, 178 127, 178 127 C 179 125, 178 124, 177 126 M 179 131 C 178 133, 172 151, 172 153 C 173 153, 175 154, 177 154 C 179 154, 183 154, 186 155 C 189 156, 192 156, 193 156 C 195 156, 196 155, 198 149 C 200 145, 203 140, 204 137 C 205 135, 206 133, 206 132 C 203 130, 181 129, 179 131 M 169 133 C 166 137, 155 152, 155 154 C 155 154, 157 155, 161 154 C 169 154, 169 154, 170 147 C 171 144, 173 139, 174 137 C 175 134, 176 132, 176 132 C 176 130, 171 131, 169 133 M 205 142 C 197 157, 197 157, 205 160 C 209 161, 214 164, 217 165 L 223 168 225 166 C 231 159, 235 146, 232 143 C 231 141, 217 134, 212 134 C 209 133, 209 133, 205 142 M 139 140 C 130 145, 86 146, 65 141 C 57 140, 51 217, 58 235 C 66 255, 92 251, 90 230 C 89 226, 87 217, 86 208 C 83 195, 82 188, 84 192 C 85 193, 92 223, 93 229 L 93 234 102 234 L 111 234 112 229 C 115 217, 119 195, 120 193 C 122 188, 123 193, 121 201 C 117 220, 115 229, 115 232 C 115 248, 136 254, 144 240 C 149 233, 149 230, 149 196 C 150 151, 147 135, 139 140 M 154 158 C 153 159, 153 161, 157 171 C 159 178, 161 185, 161 186 C 161 187, 163 187, 165 186 C 167 185, 167 182, 167 171 L 168 157 162 157 C 158 157, 155 157, 154 158 M 171 162 C 170 164, 170 170, 170 175 L 170 183 174 184 C 177 186, 177 186, 177 190 C 176 194, 176 194, 180 191 C 183 188, 186 189, 187 192 C 188 197, 190 194, 190 186 C 191 182, 192 174, 193 169 C 194 164, 194 160, 194 160 C 193 159, 183 157, 177 157 L 171 157 171 162 M 196 164 C 196 165, 195 168, 195 171 C 194 173, 194 179, 193 184 L 193 192 198 190 C 204 186, 219 175, 220 172 C 221 170, 217 167, 206 163 C 199 160, 197 160, 196 164 M 153 181 C 153 195, 153 195, 157 192 L 159 189 157 181 C 153 166, 152 166, 153 181 M 51 180 C 48 191, 48 192, 50 194 C 52 196, 52 196, 53 186 C 53 173, 53 172, 51 180 M 165 189 C 155 194, 154 198, 152 218 C 152 225, 151 233, 150 234 C 149 241, 167 235, 180 225 C 191 216, 197 199, 188 203 C 183 205, 183 205, 184 198 C 184 191, 184 191, 179 195 C 175 199, 173 198, 174 192 C 174 186, 173 185, 165 189 M 30 189 C 30 189, 30 191, 31 193 C 33 198, 30 200, 26 196 C 21 192, 20 192, 21 197 C 22 203, 22 205, 19 204 C 18 204, 16 204, 15 204 C 11 203, 11 206, 15 214 C 20 225, 34 234, 48 237 C 55 239, 56 238, 54 232 C 54 230, 53 222, 52 215 C 52 199, 50 196, 40 190 C 37 188, 30 187, 30 189 M 161 208 C 153 214, 153 224, 160 227 C 170 230, 181 215, 174 207 C 170 204, 166 204, 161 208 M 32 209 C 25 213, 27 223, 35 227 C 47 233, 56 223, 47 213 C 42 209, 37 207, 32 209 M 161 212 C 158 216, 157 221, 160 223 C 164 228, 173 221, 173 213 C 173 207, 166 206, 161 212 M 32 213 C 31 213, 30 215, 30 216 C 30 223, 42 229, 46 224 C 52 218, 39 208, 32 213"/></g>
</svg>
