<svg viewBox="0 0 400 400" xmlns="http://www.w3.org/2000/svg">
  <g class="regions">
    <ellipse class="region" fill="#ffffff" cx="200" cy="230" rx="130" ry="55"/>
    <ellipse class="region" fill="#ffffff" cx="120" cy="270" rx="28" ry="22"/>
    <ellipse class="region" fill="#ffffff" cx="280" cy="270" rx="28" ry="22"/>
    <circle class="region" fill="#ffffff" cx="335" cy="210" r="34"/>
    <path class="region" fill="#ffffff" d="M90 215 a110 95 0 0 1 220 0 z"/>
    <path class="region" fill="#ffffff" d="M200 120 v95 M155 130 l-30 80 M245 130 l30 80"/>
  </g>
  <g class="outlines" fill="none" stroke="#2b2b2b" stroke-width="6" stroke-linecap="round" stroke-linejoin="round">
    <ellipse cx="200" cy="230" rx="130" ry="55"/>
    <ellipse cx="120" cy="270" rx="28" ry="22"/>
    <ellipse cx="280" cy="270" rx="28" ry="22"/>
    <circle cx="335" cy="210" r="34"/>
    <circle cx="345" cy="202" r="5" fill="#2b2b2b"/>
    <path d="M90 215 a110 95 0 0 1 220 0"/>
    <path d="M120 200 q80 -55 160 0"/>
    <path d="M200 120 v95 M158 132 l-26 76 M242 132 l26 76"/>
  </g>
</svg>
